<svg width="437" height="96" viewBox="0 0 437 96" fill="none" xmlns="http://www.w3.org/2000/svg">
<path d="M72.1111 45.7556C73.5949 44.9031 75.4161 44.9113 76.8922 45.7771L94.4232 56.0596C95.9061 56.9294 96.8153 58.5323 96.8076 60.263L96.716 80.6409C96.7082 82.3716 95.7846 83.9663 94.294 84.8227L76.6713 94.9473C75.1875 95.7998 73.3663 95.7916 71.8902 94.9258L54.3592 84.6433C52.8763 83.7735 51.9671 82.1706 51.9749 80.4399L52.0664 60.062C52.0742 58.3313 52.9978 56.7366 54.4884 55.8802L72.1111 45.7556Z" fill="#43D3FF"/>
<path d="M20.9781 45.5259C22.4619 44.6734 24.2831 44.6815 25.7592 45.5473L43.2902 55.8299C44.7731 56.6997 45.6823 58.3026 45.6745 60.0333L45.583 80.4112C45.5752 82.1419 44.6516 83.7366 43.161 84.5929L25.5383 94.7176C24.0545 95.5701 22.2333 95.5619 20.7572 94.6961L3.22616 84.4135C1.74331 83.5438 0.834071 81.9409 0.841846 80.2102L0.933392 59.8323C0.941167 58.1016 1.86478 56.5069 3.35538 55.6505L20.9781 45.5259Z" fill="#43D3FF"/>
<path d="M46.7458 0.849003C48.2296 -0.00349885 50.0508 0.00468367 51.5269 0.870483L69.058 11.1531C70.5408 12.0228 71.4501 13.6257 71.4423 15.3564L71.3507 35.7343C71.343 37.465 70.4194 39.0597 68.9287 39.9161L51.306 50.0407C49.8222 50.8932 48.001 50.8851 46.5249 50.0193L28.9939 39.7367C27.511 38.8669 26.6018 37.264 26.6096 35.5333L26.7011 15.1554C26.7089 13.4247 27.6325 11.8301 29.1231 10.9737L46.7458 0.849003Z" fill="#43D3FF"/>
<path d="M156.26 75.8403C150.951 75.8165 146.415 74.8726 142.652 73.0088C138.89 71.095 136.025 68.1619 134.058 64.2095C132.141 60.2573 131.196 55.2363 131.223 49.1464C131.263 40.1613 133.476 33.5072 137.862 29.184C142.298 24.8111 148.51 22.6426 156.499 22.6785C160.865 22.6981 164.782 23.4645 168.248 24.9776C171.715 26.4907 174.434 28.7493 176.405 31.7532C178.426 34.7574 179.426 38.5307 179.406 43.0732L168.242 43.023C168.252 40.627 167.765 38.6031 166.78 36.9514C165.845 35.2999 164.486 34.0458 162.704 33.1892C160.971 32.2829 158.939 31.8245 156.607 31.814C153.431 31.7998 150.799 32.4119 148.709 33.6505C146.669 34.8893 145.147 36.7294 144.144 39.1709C143.19 41.5627 142.706 44.5057 142.69 47.9999L142.68 50.321C142.664 53.9151 143.146 56.9373 144.128 59.3877C145.109 61.7882 146.59 63.6168 148.569 64.8737C150.598 66.0808 153.2 66.6916 156.375 66.7058C158.856 66.717 161.017 66.3024 162.856 65.462C164.696 64.6217 166.116 63.3801 167.116 61.7373C168.115 60.0945 168.621 58.0751 168.631 55.679L179.349 55.7272C179.329 60.2697 178.319 64.0339 176.321 67.0201C174.373 70.0064 171.658 72.2405 168.178 73.7224C164.698 75.1544 160.726 75.8604 156.26 75.8403Z" fill="white"/>
<path d="M201.393 76.0431C197.126 76.0239 193.507 75.2839 190.536 73.8229C187.566 72.312 185.318 70.0306 183.794 66.9788C182.27 63.877 181.518 60.0049 181.539 55.3626C181.56 50.6205 182.347 46.7554 183.898 43.7673C185.45 40.7292 187.718 38.4931 190.701 37.0589C193.685 35.5747 197.311 34.8422 201.578 34.8614C205.944 34.881 209.588 35.6461 212.509 37.1568C215.479 38.6178 217.727 40.8742 219.251 43.9261C220.776 46.928 221.528 50.8001 221.506 55.5422C221.486 60.1845 220.699 64.0496 219.147 67.1376C217.595 70.1756 215.327 72.4367 212.343 73.9209C209.409 75.3553 205.759 76.0627 201.393 76.0431ZM201.429 67.9565C203.712 67.9668 205.525 67.5506 206.868 66.708C208.261 65.8657 209.284 64.5724 209.937 62.8282C210.59 61.084 210.922 58.939 210.934 56.3932L210.942 54.5962C210.953 52.0504 210.64 49.9025 210.003 48.1525C209.366 46.4025 208.355 45.1001 206.969 44.2453C205.633 43.3408 203.824 42.8834 201.542 42.8731C199.309 42.8631 197.496 43.3042 196.103 44.1965C194.759 45.039 193.761 46.3324 193.108 48.0766C192.455 49.8208 192.123 51.9658 192.111 54.5116L192.103 56.3086C192.092 58.8544 192.405 61.0023 193.042 62.7523C193.679 64.5023 194.666 65.8046 196.002 66.6592C197.387 67.514 199.196 67.9465 201.429 67.9565Z" fill="white"/>
<path d="M239.149 76.2127C235.923 76.1982 233.123 75.4618 230.748 74.0035C228.423 72.4955 226.622 70.2162 225.345 67.1654C224.069 64.1147 223.441 60.2182 223.463 55.4761C223.484 50.734 224.146 46.8683 225.45 43.879C226.803 40.8401 228.625 38.602 230.914 37.1646C233.252 35.7275 235.935 35.0157 238.961 35.0293C240.648 35.0369 242.211 35.2436 243.648 35.6494C245.135 36.0055 246.422 36.5854 247.51 37.3889C248.648 38.1927 249.611 39.1705 250.4 40.3221L250.846 40.3241L250.932 21.2308L261.278 21.2773L261.034 75.4125L252.55 75.3744L251.755 70.0545L251.234 70.0522C249.934 72.1429 248.24 73.7077 246.152 74.7466C244.063 75.7356 241.729 76.2243 239.149 76.2127ZM242.462 67.6916C244.397 67.7003 245.962 67.258 247.157 66.3649C248.401 65.4719 249.325 64.1782 249.928 62.4837C250.531 60.7892 250.838 58.7689 250.848 56.4228L250.855 55.075C250.862 53.3279 250.696 51.7298 250.355 50.2806C250.064 48.8317 249.573 47.6314 248.883 46.6799C248.192 45.6784 247.327 44.9258 246.288 44.4219C245.248 43.8681 244.009 43.588 242.57 43.5816C240.486 43.5722 238.822 43.989 237.578 44.8321C236.334 45.6252 235.435 46.8691 234.882 48.5638C234.328 50.2086 234.046 52.279 234.035 54.7748L234.027 56.497C234.016 58.9928 234.28 61.0656 234.818 62.7153C235.356 64.3651 236.244 65.617 237.48 66.4712C238.717 67.2754 240.378 67.6822 242.462 67.6916Z" fill="white"/>
<path d="M284.654 76.4171C280.337 76.3977 276.718 75.6577 273.797 74.1969C270.876 72.6863 268.678 70.4051 267.203 67.3535C265.729 64.3018 265.002 60.4299 265.023 55.7377C265.044 50.9955 265.806 47.1303 267.308 44.142C268.81 41.1037 271.003 38.8672 273.888 37.4326C276.822 35.9482 280.398 35.2155 284.615 35.2344C288.585 35.2523 291.931 35.9911 294.653 37.451C297.376 38.8609 299.425 41.0665 300.801 44.0678C302.177 47.0191 302.855 50.8409 302.834 55.5332L302.822 58.2287L275.507 58.106C275.596 60.4026 275.934 62.351 276.522 63.951C277.16 65.5512 278.122 66.7536 279.409 67.5581C280.745 68.3128 282.505 68.6951 284.688 68.7049C285.879 68.7103 286.946 68.5653 287.891 68.2701C288.884 67.975 289.73 67.5295 290.427 66.9337C291.125 66.3378 291.674 65.5915 292.075 64.6947C292.476 63.798 292.679 62.7756 292.684 61.6275L302.806 61.673C302.795 64.1688 302.339 66.3382 301.437 68.1812C300.536 70.0241 299.288 71.5659 297.695 72.8067C296.102 73.9976 294.187 74.9125 291.952 75.5514C289.766 76.1406 287.333 76.4292 284.654 76.4171ZM275.685 51.5176L292.208 51.5918C292.215 50.0943 292.022 48.7955 291.63 47.6956C291.288 46.5958 290.796 45.6951 290.154 44.9934C289.512 44.2916 288.72 43.7889 287.779 43.4851C286.887 43.1317 285.871 42.9524 284.729 42.9473C282.844 42.9388 281.255 43.2562 279.962 43.8993C278.719 44.4927 277.747 45.4368 277.046 46.7315C276.396 47.9766 275.942 49.5719 275.685 51.5176Z" fill="white"/>
<path d="M306.613 75.6173L306.856 21.482L317.201 21.5285L317.115 40.6218L317.636 40.6242C318.485 39.5797 319.481 38.6857 320.626 37.942C321.82 37.1487 323.138 36.5306 324.579 36.0879C326.069 35.6453 327.683 35.4279 329.42 35.4357C332 35.4473 334.255 35.9317 336.186 36.8888C338.117 37.8459 339.599 39.3501 340.632 41.4014C341.714 43.4529 342.248 46.1259 342.233 49.4205L342.115 75.7768L331.769 75.7303L331.88 51.0213C331.886 49.7733 331.742 48.7244 331.448 47.8745C331.154 46.9746 330.711 46.2488 330.118 45.697C329.575 45.0956 328.882 44.6682 328.039 44.4148C327.197 44.1614 326.255 44.0324 325.213 44.0277C323.675 44.0208 322.284 44.3889 321.04 45.1321C319.796 45.8753 318.824 46.8943 318.123 48.189C317.423 49.4837 317.069 50.9797 317.061 52.6769L316.958 75.6637L306.613 75.6173Z" fill="white"/>
<path d="M347.867 30.6515L347.907 21.6665L358.253 21.7129L358.212 30.698L347.867 30.6515ZM347.664 75.8017L347.841 36.417L358.186 36.4635L358.01 75.8482L347.664 75.8017Z" fill="white"/>
<path d="M373.907 75.9196L359.497 36.4694L370.437 36.5185L376.094 53.1667C376.388 54.0166 376.73 55.1413 377.121 56.5408C377.561 57.9405 378.001 59.415 378.44 60.9645C378.88 62.5139 379.246 63.9133 379.538 65.1625L379.91 65.1642C380.263 64.0177 380.641 62.6965 381.044 61.2008C381.448 59.6552 381.852 58.1844 382.255 56.7885C382.708 55.3429 383.086 54.1465 383.388 53.1995L389.193 36.6028L399.613 36.6496L384.774 75.9684L373.907 75.9196Z" fill="white"/>
<path d="M418.551 77.0187C414.234 76.9993 410.615 76.2592 407.694 74.7984C404.773 73.2878 402.575 71.0066 401.101 67.955C399.626 64.9033 398.899 61.0314 398.92 56.3392C398.941 51.5971 399.703 47.7318 401.205 44.7435C402.707 41.7052 404.9 39.4687 407.785 38.0341C410.719 36.5497 414.295 35.817 418.512 35.8359C422.482 35.8538 425.828 36.5926 428.55 38.0525C431.273 39.4624 433.322 41.668 434.698 44.6693C436.074 47.6207 436.752 51.4425 436.731 56.1347L436.719 58.8302L409.404 58.7075C409.493 61.0041 409.831 62.9525 410.419 64.5525C411.057 66.1527 412.02 67.3551 413.306 68.1596C414.642 68.9143 416.402 69.2966 418.585 69.3065C419.776 69.3118 420.844 69.1668 421.788 68.8716C422.781 68.5765 423.627 68.1311 424.324 67.5352C425.022 66.9393 425.571 66.193 425.972 65.2963C426.373 64.3995 426.576 63.3771 426.581 62.229L436.703 62.2745C436.692 64.7704 436.236 66.9397 435.334 68.7827C434.433 70.6256 433.185 72.1675 431.592 73.4083C429.999 74.5991 428.084 75.514 425.849 76.1529C423.663 76.7421 421.23 77.0307 418.551 77.0187ZM409.582 52.1191L426.105 52.1933C426.112 50.6958 425.919 49.3971 425.527 48.2971C425.185 47.1974 424.693 46.2966 424.051 45.5949C423.409 44.8931 422.617 44.3904 421.676 44.0867C420.784 43.7332 419.768 43.554 418.627 43.5488C416.741 43.5404 415.152 43.8577 413.859 44.5008C412.616 45.0942 411.644 46.0383 410.943 47.3331C410.293 48.5781 409.839 50.1734 409.582 52.1191Z" fill="white"/>
</svg>
