<svg width="1554" height="298" viewBox="0 0 1554 298" fill="none" xmlns="http://www.w3.org/2000/svg">
<path d="M1453.02 298C1390.08 298 1348.4 254.238 1348.4 187.552C1348.4 122.117 1390.08 79.6056 1450.93 79.6056C1514.7 79.6056 1553.05 120.45 1553.05 185.885C1553.05 193.387 1552.63 200.89 1551.79 209.642H1405.92C1408.42 235.483 1425.51 249.653 1453.43 249.653C1472.19 249.653 1484.28 241.734 1489.69 230.481H1549.29C1537.21 271.326 1505.53 298 1453.02 298ZM1405.5 165.463H1494.28V164.629C1494.28 141.289 1479.27 125.452 1450.93 125.452C1423.84 125.452 1407.17 141.29 1405.5 165.463Z" fill="white"/>
<path d="M1018.62 291.748V85.8573H1069.88V105.446C1082.39 87.1077 1099.47 79.6056 1121.56 79.6056C1146.99 79.6056 1166.16 90.8587 1177 111.281C1191.58 89.1916 1211.59 79.6056 1235.35 79.6056C1282.86 79.6056 1311.2 110.031 1311.2 162.545V291.748H1252.85V166.713C1252.85 144.207 1242.85 132.12 1223.68 132.12C1205.34 132.12 1194.08 146.291 1194.08 168.38V291.748H1135.73V166.713C1135.73 144.207 1125.73 132.12 1106.98 132.12C1088.64 132.12 1076.97 146.291 1076.97 168.38V291.748H1018.62Z" fill="white"/>
<path d="M911.573 291.748V85.8574H969.923V291.748H911.573ZM909.906 55.0154V0.833618H971.173V55.0154H909.906Z" fill="white"/>
<path d="M827.185 291.748C795.509 291.748 780.922 279.662 780.922 248.82V0H839.271V227.98C839.271 236.733 842.606 240.901 852.192 240.901H874.698V291.748H827.185Z" fill="white"/>
<path d="M681.441 291.748L626.008 207.141H608.087V291.748H549.737V0H608.087V154.21H626.008L680.19 85.8574H751.043L676.439 179.217L751.043 291.748H681.441Z" fill="white"/>
<path d="M123.788 135.05L0 291.423H343.231V0L180.056 206.128L123.788 135.05Z" fill="#CBFF00"/>
</svg>
